<svg width="153" height="39" viewBox="0 0 153 39" fill="none" xmlns="http://www.w3.org/2000/svg">
<path fill-rule="evenodd" clip-rule="evenodd" d="M26 9.5H13.0261V28.1013L13 28.1551L13.0261 28.1672V29.5H26V9.5ZM16.4058 25.3627L24.1466 19.2814V11.3182H23.2132L16.4058 25.3627ZM21.1609 11.3182H14.8795V24.2775L21.1609 11.3182ZM24.1466 24.6718L18.045 26.4042L24.1466 21.6108V24.6718ZM20.2117 27.6818H24.1466V26.5646L20.2117 27.6818Z" fill="black" style="fill:black;fill-opacity:1;"/>
<path d="M147.808 26.858C146.732 26.858 145.801 26.6933 145.015 26.364C144.23 26.022 143.616 25.566 143.172 24.996L144.597 23.704C145.003 24.1473 145.465 24.4893 145.984 24.73C146.516 24.9707 147.131 25.091 147.827 25.091C148.435 25.091 148.923 24.9897 149.29 24.787C149.658 24.5843 149.841 24.274 149.841 23.856C149.841 23.5013 149.715 23.2607 149.461 23.134C149.221 23.0073 148.898 22.9123 148.492 22.849L146.915 22.602C146.51 22.5387 146.111 22.45 145.718 22.336C145.338 22.2093 144.996 22.0383 144.692 21.823C144.401 21.6077 144.167 21.3353 143.989 21.006C143.812 20.664 143.723 20.2523 143.723 19.771C143.723 18.745 144.103 17.9597 144.863 17.415C145.636 16.8703 146.694 16.598 148.036 16.598C148.986 16.598 149.791 16.731 150.449 16.997C151.121 17.263 151.672 17.6367 152.102 18.118L150.829 19.524C150.551 19.22 150.177 18.954 149.708 18.726C149.252 18.4853 148.67 18.365 147.96 18.365C146.719 18.365 146.098 18.7513 146.098 19.524C146.098 19.8787 146.225 20.1257 146.478 20.265C146.732 20.3917 147.061 20.4867 147.466 20.55L149.024 20.797C149.442 20.8603 149.841 20.9553 150.221 21.082C150.614 21.196 150.956 21.3607 151.247 21.576C151.551 21.7913 151.792 22.0637 151.969 22.393C152.147 22.7223 152.235 23.1277 152.235 23.609C152.235 24.6223 151.843 25.4203 151.057 26.003C150.285 26.573 149.202 26.858 147.808 26.858Z" fill="black" style="fill:black;fill-opacity:1;"/>
<path d="M132.179 24.711H134.611V18.745H132.179V16.826H137.043V19.505H137.195C137.283 19.163 137.404 18.8337 137.556 18.517C137.72 18.1877 137.923 17.9027 138.164 17.662C138.417 17.4087 138.721 17.206 139.076 17.054C139.43 16.902 139.855 16.826 140.349 16.826H141.413V19.106H139.399C138.664 19.106 138.088 19.3213 137.67 19.752C137.252 20.1827 137.043 20.7337 137.043 21.405V24.711H140.444V26.63H132.179V24.711Z" fill="black" style="fill:black;fill-opacity:1;"/>
<path d="M125.289 26.858C124.504 26.858 123.807 26.7377 123.199 26.497C122.591 26.2563 122.078 25.9143 121.66 25.471C121.255 25.0277 120.944 24.4957 120.729 23.875C120.514 23.2417 120.406 22.5323 120.406 21.747C120.406 20.949 120.514 20.2333 120.729 19.6C120.957 18.9667 121.274 18.4283 121.679 17.985C122.084 17.5417 122.572 17.1997 123.142 16.959C123.725 16.7183 124.377 16.598 125.099 16.598C125.808 16.598 126.448 16.7183 127.018 16.959C127.588 17.187 128.069 17.5163 128.462 17.947C128.867 18.3777 129.178 18.897 129.393 19.505C129.608 20.113 129.716 20.7843 129.716 21.519V22.317H122.838V22.564C122.838 23.2733 123.06 23.8497 123.503 24.293C123.946 24.7237 124.567 24.939 125.365 24.939C125.973 24.939 126.492 24.8187 126.923 24.578C127.366 24.3247 127.734 23.9953 128.025 23.59L129.412 24.977C129.057 25.4963 128.538 25.9397 127.854 26.307C127.183 26.6743 126.328 26.858 125.289 26.858ZM125.118 18.384C124.434 18.384 123.883 18.5993 123.465 19.03C123.047 19.4607 122.838 20.0307 122.838 20.74V20.873H127.284V20.702C127.284 19.9927 127.088 19.429 126.695 19.011C126.315 18.593 125.789 18.384 125.118 18.384Z" fill="black" style="fill:black;fill-opacity:1;"/>
<path d="M109.28 16.826H111.712V18.555H111.845C112.111 17.9597 112.472 17.4847 112.928 17.13C113.396 16.7753 114.011 16.598 114.771 16.598C115.328 16.598 115.835 16.7057 116.291 16.921C116.759 17.1237 117.158 17.4403 117.488 17.871C117.817 18.289 118.07 18.821 118.248 19.467C118.425 20.113 118.514 20.8667 118.514 21.728C118.514 22.5893 118.425 23.343 118.248 23.989C118.07 24.635 117.817 25.1733 117.488 25.604C117.158 26.022 116.759 26.3387 116.291 26.554C115.835 26.7567 115.328 26.858 114.771 26.858C114.011 26.858 113.396 26.6807 112.928 26.326C112.472 25.9713 112.111 25.4963 111.845 24.901H111.712V30.43H109.28V16.826ZM113.745 24.92C114.454 24.92 114.999 24.7047 115.379 24.274C115.771 23.8433 115.968 23.2543 115.968 22.507V20.949C115.968 20.2017 115.771 19.6127 115.379 19.182C114.999 18.7513 114.454 18.536 113.745 18.536C113.187 18.536 112.706 18.6753 112.301 18.954C111.908 19.22 111.712 19.6317 111.712 20.189V23.267C111.712 23.8243 111.908 24.2423 112.301 24.521C112.706 24.787 113.187 24.92 113.745 24.92Z" fill="black" style="fill:black;fill-opacity:1;"/>
<path d="M102.276 26.858C101.529 26.858 100.857 26.7377 100.262 26.497C99.6793 26.2563 99.1789 25.9143 98.7609 25.471C98.3556 25.0277 98.0389 24.4893 97.8109 23.856C97.5956 23.2227 97.4879 22.5133 97.4879 21.728C97.4879 20.9427 97.5956 20.2333 97.8109 19.6C98.0389 18.9667 98.3556 18.4283 98.7609 17.985C99.1789 17.5417 99.6793 17.1997 100.262 16.959C100.857 16.7183 101.529 16.598 102.276 16.598C103.011 16.598 103.676 16.7183 104.271 16.959C104.866 17.1997 105.367 17.5417 105.772 17.985C106.19 18.4283 106.507 18.9667 106.722 19.6C106.95 20.2333 107.064 20.9427 107.064 21.728C107.064 22.5133 106.95 23.2227 106.722 23.856C106.507 24.4893 106.19 25.0277 105.772 25.471C105.367 25.9143 104.866 26.2563 104.271 26.497C103.676 26.7377 103.011 26.858 102.276 26.858ZM102.276 24.996C102.973 24.996 103.524 24.787 103.929 24.369C104.334 23.9383 104.537 23.3113 104.537 22.488V20.968C104.537 20.1447 104.334 19.524 103.929 19.106C103.524 18.6753 102.973 18.46 102.276 18.46C101.579 18.46 101.028 18.6753 100.623 19.106C100.218 19.524 100.015 20.1447 100.015 20.968V22.488C100.015 23.3113 100.218 23.9383 100.623 24.369C101.028 24.787 101.579 24.996 102.276 24.996Z" fill="black" style="fill:black;fill-opacity:1;"/>
<path d="M86.5514 24.711H89.6674V14.489H86.5514V12.57H92.0994V24.711H95.2344V26.63H86.5514V24.711Z" fill="black" style="fill:black;fill-opacity:1;"/>
<path d="M79.883 27.26C79.0977 27.26 78.401 27.1397 77.793 26.899C77.185 26.6583 76.672 26.3163 76.254 25.873C75.8487 25.4297 75.5383 24.8977 75.323 24.277C75.1077 23.6437 75 22.9343 75 22.149C75 21.351 75.1077 20.6353 75.323 20.002C75.551 19.3687 75.8677 18.8303 76.273 18.387C76.6783 17.9437 77.166 17.6017 77.736 17.361C78.3187 17.1203 78.971 17 79.693 17C80.4023 17 81.042 17.1203 81.612 17.361C82.182 17.589 82.6633 17.9183 83.056 18.349C83.4613 18.7797 83.7717 19.299 83.987 19.907C84.2023 20.515 84.31 21.1863 84.31 21.921V22.719H77.432V22.966C77.432 23.6753 77.6537 24.2517 78.097 24.695C78.5403 25.1257 79.161 25.341 79.959 25.341C80.567 25.341 81.0863 25.2207 81.517 24.98C81.9603 24.7267 82.3277 24.3973 82.619 23.992L84.006 25.379C83.6513 25.8983 83.132 26.3417 82.448 26.709C81.7767 27.0763 80.9217 27.26 79.883 27.26ZM79.712 18.786C79.028 18.786 78.477 19.0013 78.059 19.432C77.641 19.8627 77.432 20.4327 77.432 21.142V21.275H81.878V21.104C81.878 20.3947 81.6817 19.831 81.289 19.413C80.909 18.995 80.3833 18.786 79.712 18.786Z" fill="black" style="fill:black;fill-opacity:1;"/>
<path d="M66.6352 26.63L63.1202 16.826H65.6662L66.9772 20.987L68.0792 24.597H68.2122L69.3142 20.987L70.6252 16.826H73.0762L69.5612 26.63H66.6352Z" fill="black" style="fill:black;fill-opacity:1;"/>
<path d="M56.9337 26.858C56.1483 26.858 55.4517 26.7377 54.8437 26.497C54.2357 26.2563 53.7227 25.9143 53.3047 25.471C52.8993 25.0277 52.589 24.4957 52.3737 23.875C52.1583 23.2417 52.0507 22.5323 52.0507 21.747C52.0507 20.949 52.1583 20.2333 52.3737 19.6C52.6017 18.9667 52.9183 18.4283 53.3237 17.985C53.729 17.5417 54.2167 17.1997 54.7867 16.959C55.3693 16.7183 56.0217 16.598 56.7437 16.598C57.453 16.598 58.0927 16.7183 58.6627 16.959C59.2327 17.187 59.714 17.5163 60.1067 17.947C60.512 18.3777 60.8223 18.897 61.0377 19.505C61.253 20.113 61.3607 20.7843 61.3607 21.519V22.317H54.4827V22.564C54.4827 23.2733 54.7043 23.8497 55.1477 24.293C55.591 24.7237 56.2117 24.939 57.0097 24.939C57.6177 24.939 58.137 24.8187 58.5677 24.578C59.011 24.3247 59.3783 23.9953 59.6697 23.59L61.0567 24.977C60.702 25.4963 60.1827 25.9397 59.4987 26.307C58.8273 26.6743 57.9723 26.858 56.9337 26.858ZM56.7627 18.384C56.0787 18.384 55.5277 18.5993 55.1097 19.03C54.6917 19.4607 54.4827 20.0307 54.4827 20.74V20.873H58.9287V20.702C58.9287 19.9927 58.7323 19.429 58.3397 19.011C57.9597 18.593 57.434 18.384 56.7627 18.384Z" fill="black" style="fill:black;fill-opacity:1;"/>
<path d="M41 13.368H45.123C46.8457 13.368 48.125 13.938 48.961 15.078C49.8097 16.218 50.234 17.8583 50.234 19.999C50.234 22.1523 49.8097 23.799 48.961 24.939C48.125 26.0663 46.8457 26.63 45.123 26.63H41V13.368ZM44.952 24.635C45.864 24.635 46.5353 24.3373 46.966 23.742C47.4093 23.1467 47.631 22.279 47.631 21.139V18.84C47.631 17.7127 47.4093 16.8513 46.966 16.256C46.5353 15.6607 45.864 15.363 44.952 15.363H43.451V24.635H44.952Z" fill="black" style="fill:black;fill-opacity:1;"/>
</svg>
